<?xml version="1.0" encoding="UTF-8" standalone="no"?>
<svg width="40px" height="40px" viewBox="0 0 40 40" version="1.1" xmlns="http://www.w3.org/2000/svg" xmlns:xlink="http://www.w3.org/1999/xlink" xmlns:sketch="http://www.bohemiancoding.com/sketch/ns">
    <!-- Generator: Sketch 3.5.1 (25234) - http://www.bohemiancoding.com/sketch -->
    <title>icon-whatsapp</title>
    <desc>Created with Sketch.</desc>
    <defs>
        <path id="path-1" d="M0,0 L39.7968646,0 L39.7968646,39.9881235 L0,39.9881235"></path>
    </defs>
    <g id="Page-1" stroke="none" stroke-width="1" fill="none" fill-rule="evenodd" sketch:type="MSPage">
        <g id="icon-whatsapp" sketch:type="MSArtboardGroup">
            <g id="Page-1" sketch:type="MSLayerGroup">
                <mask id="mask-2" sketch:name="Clip 2" fill="white">
                    <use xlink:href="#path-1"></use>
                </mask>
                <g id="Clip-2"></g>
                <path d="M29.015601,23.9749834 C28.5204941,23.7271924 26.0862898,22.5295677 25.6324181,22.364152 C25.1786413,22.1989264 24.8485701,22.1164561 24.5184988,22.611943 C24.1884276,23.1075249 23.2395439,24.2228694 22.9507078,24.5533207 C22.6619667,24.883677 22.3731306,24.9251971 21.8780238,24.6772162 C21.3829169,24.4294252 19.7875724,23.9066698 17.8964561,22.219734 C16.4246271,20.9068599 15.4308979,19.2855772 15.1421568,18.7899002 C14.8533207,18.2942233 15.1112779,18.0262898 15.3591639,17.7794489 C15.5819667,17.5575012 15.8543658,17.2011116 16.1018717,16.9119905 C16.3494727,16.6229644 16.431943,16.4163135 16.5969786,16.0860523 C16.7620143,15.7555059 16.6795439,15.4664798 16.5556485,15.2186888 C16.431943,14.9708979 15.4417292,12.5337482 15.0291876,11.5422993 C14.6272874,10.5769786 14.2191164,10.707715 13.9151734,10.6924181 C13.6267173,10.6780713 13.296266,10.6750309 12.9662898,10.6750309 C12.6362185,10.6750309 12.0997815,10.7989264 11.6459097,11.2945083 C11.192133,11.7901853 9.91308314,12.988095 9.91308314,15.4249596 C9.91308314,17.8621093 11.6871449,20.2163135 11.9347458,20.5467648 C12.1823468,20.8773112 15.4259572,25.8781663 20.3927981,28.0227743 C21.5739857,28.5329881 22.496266,28.8375962 23.2153159,29.0657197 C24.4013492,29.4426318 25.4806841,29.3894252 26.3337957,29.2619192 C27.2850546,29.1198765 29.2631069,28.0642945 29.6757435,26.90781 C30.088285,25.7510404 30.088285,24.7597815 29.9644846,24.5533207 C29.8407791,24.3467648 29.5107078,24.2228694 29.015601,23.9749834 M19.9816817,36.3099002 L19.9750309,36.3099002 C17.0196865,36.3087601 14.1210641,35.5147458 11.5924181,34.0142233 L10.9909929,33.6572637 L4.75764371,35.2924181 L6.42139667,29.2148884 L6.02985273,28.5917055 C4.38120665,25.9695677 3.5104228,22.9388789 3.51175297,19.8268599 C3.51536342,10.7462898 10.903677,3.35854632 19.9882375,3.35854632 C24.3872874,3.36006651 28.5223943,5.07541093 31.632038,8.18857007 C34.7414917,11.3015392 36.4529406,15.4394964 36.4512304,19.8401615 C36.4475249,28.9214917 29.0593064,36.3099002 19.9816817,36.3099002 M33.9985938,5.82305938 C30.2575012,2.0775962 25.2822993,0.0140332542 19.9814917,0.011847981 C9.05959145,0.011847981 0.170470309,8.90039905 0.166099762,19.8256247 C0.164674584,23.3180713 1.07707363,26.7268124 2.81113539,29.731943 L1.90023753e-05,39.9999715 L10.504342,37.2445321 C13.3985938,38.8231544 16.6572162,39.6552684 19.9736057,39.6563135 L19.9816817,39.6563135 L19.9817767,39.6563135 C30.9025368,39.6563135 39.7924181,30.7669074 39.7968836,19.8414917 C39.7988789,14.5468599 37.7396865,9.56842755 33.9985938,5.82305938" id="Fill-1" fill="#FFFFFF" sketch:type="MSShapeGroup" mask="url(#mask-2)"></path>
            </g>
        </g>
    </g>
</svg>