<?xml version="1.0" encoding="UTF-8" standalone="no"?>
<svg width="40px" height="40px" viewBox="0 0 40 40" version="1.1" xmlns="http://www.w3.org/2000/svg" xmlns:xlink="http://www.w3.org/1999/xlink" xmlns:sketch="http://www.bohemiancoding.com/sketch/ns">
    <!-- Generator: Sketch 3.5.1 (25234) - http://www.bohemiancoding.com/sketch -->
    <title>icon-instagram</title>
    <desc>Created with Sketch.</desc>
    <defs>
        <path id="path-1" d="M0,0.281043478 L40,0.281043478 L40,39.9328671 L0,39.9328671 L0,0.281043478 Z"></path>
    </defs>
    <g id="Page-1" stroke="none" stroke-width="1" fill="none" fill-rule="evenodd" sketch:type="MSPage">
        <g id="icon-instagram" sketch:type="MSArtboardGroup">
            <mask id="mask-2" sketch:name="Clip 2" fill="white">
                <use xlink:href="#path-1"></use>
            </mask>
            <g id="Clip-2"></g>
            <path d="M35.3855804,39.9328671 L4.61441962,39.9328671 C2.06620551,39.9328671 0,37.883928 0,35.3561207 L0,4.85533771 C0,2.32893168 2.06620551,0.281043478 4.61441962,0.281043478 L35.3855804,0.281043478 C37.9341479,0.281043478 40,2.32893168 40,4.85533771 L40,35.3561207 C40,37.883928 37.9341479,39.9328671 35.3855804,39.9328671 L35.3855804,39.9328671 Z M19.9998233,12.4811465 C15.7511507,12.4811465 12.3074748,15.894527 12.3074748,20.1062547 C12.3074748,24.3172817 15.7511507,27.7324138 19.9998233,27.7324138 C24.2484959,27.7324138 27.6928785,24.3172817 27.6928785,20.1062547 C27.6928785,15.894527 24.2484959,12.4811465 19.9998233,12.4811465 L19.9998233,12.4811465 Z M35.3855804,6.38021922 C35.3855804,5.53843418 34.6964918,4.85533771 33.8455558,4.85533771 L29.2311362,4.85533771 C28.3812603,4.85533771 27.6928785,5.53843418 27.6928785,6.38021922 L27.6928785,10.956265 C27.6928785,11.79805 28.3812603,12.4811465 29.2311362,12.4811465 L33.8455558,12.4811465 C34.6964918,12.4811465 35.3855804,11.79805 35.3855804,10.956265 L35.3855804,6.38021922 Z M35.3855804,17.0550904 L31.9033863,17.0550904 C32.1571122,18.0313929 32.3069448,19.0514837 32.3069448,20.1062547 C32.3069448,26.8454393 26.7970634,32.3070583 19.9998233,32.3070583 C13.2029366,32.3070583 7.69270185,26.8454393 7.69270185,20.1062547 C7.69270185,19.0514837 7.84324119,18.0313929 8.09696713,17.0550904 L4.61441962,17.0550904 L4.61441962,33.8322901 C4.61441962,34.6733745 5.30350817,35.3561207 6.15444418,35.3561207 L33.8455558,35.3561207 C34.6964918,35.3561207 35.3855804,34.6733745 35.3855804,33.8322901 L35.3855804,17.0550904 Z" id="Fill-1" fill="#FFFFFF" sketch:type="MSShapeGroup" mask="url(#mask-2)"></path>
        </g>
    </g>
</svg>