<?xml version="1.0" encoding="UTF-8" standalone="no"?>
<svg width="40px" height="40px" viewBox="0 0 40 40" version="1.1" xmlns="http://www.w3.org/2000/svg" xmlns:xlink="http://www.w3.org/1999/xlink" xmlns:sketch="http://www.bohemiancoding.com/sketch/ns">
    <!-- Generator: Sketch 3.5.1 (25234) - http://www.bohemiancoding.com/sketch -->
    <title>icon-twitter</title>
    <desc>Created with Sketch.</desc>
    <defs>
        <path id="path-1" d="M0.00875912409,4.12142443 L39.9109489,4.12142443 L39.9109489,36.9323134 L0.00875912409,36.9323134"></path>
    </defs>
    <g id="Page-1" stroke="none" stroke-width="1" fill="none" fill-rule="evenodd" sketch:type="MSPage">
        <g id="icon-twitter" sketch:type="MSArtboardGroup">
            <mask id="mask-2" sketch:name="Clip 2" fill="white">
                <use xlink:href="#path-1"></use>
            </mask>
            <g id="Clip-2"></g>
            <path d="M39.9109489,8.00656291 C38.4424818,8.66553416 36.8643796,9.11090477 35.2080292,9.31121076 C36.8986861,8.28575046 38.1969343,6.66203113 38.8083212,4.72736481 C37.2262774,5.6767502 35.4738686,6.36629913 33.6087591,6.73795832 C32.1150365,5.12768135 29.9870073,4.12142443 27.6319708,4.12142443 C23.109781,4.12142443 19.4435036,7.8310736 19.4435036,12.4066473 C19.4435036,13.0560169 19.5160584,13.6883988 19.6556204,14.2947824 C12.850365,13.9492693 6.81693431,10.6507201 2.77839416,5.63804801 C2.07357664,6.86174624 1.66978102,8.28501187 1.66978102,9.80340807 C1.66978102,12.6778581 3.11547445,15.2138855 5.31255474,16.699636 C3.97021898,16.65665 2.70773723,16.2839567 1.60364964,15.6633922 C1.60306569,15.6979583 1.60306569,15.7326721 1.60306569,15.7675336 C1.60306569,19.7819256 4.42554745,23.130699 8.17138686,23.8917436 C7.48423358,24.0811184 6.76087591,24.1823055 6.0140146,24.1823055 C5.48642336,24.1823055 4.97343066,24.1304563 4.47357664,24.0337009 C5.51547445,27.325455 8.53941606,29.7208547 12.1224818,29.787771 C9.32014599,32.0098971 5.78948905,33.3344869 1.95328467,33.3344869 C1.29240876,33.3344869 0.640583942,33.2953416 0,33.2188235 C3.62364964,35.5696122 7.92773723,36.9411765 12.5518248,36.9411765 C27.6128467,36.9411765 35.8487591,24.3161382 35.8487591,13.367407 C35.8487591,13.0081562 35.8408759,12.6508256 35.8251095,12.2955632 C37.4248175,11.127407 38.8131387,9.66809813 39.9109489,8.00656291" id="Fill-1" fill="#FFFFFF" sketch:type="MSShapeGroup" mask="url(#mask-2)"></path>
        </g>
    </g>
</svg>