<?xml version="1.0" encoding="UTF-8" standalone="no"?>
<svg width="40px" height="40px" viewBox="0 0 40 40" version="1.1" xmlns="http://www.w3.org/2000/svg" xmlns:xlink="http://www.w3.org/1999/xlink" xmlns:sketch="http://www.bohemiancoding.com/sketch/ns">
    <!-- Generator: Sketch 3.5.1 (25234) - http://www.bohemiancoding.com/sketch -->
    <title>icon-linkedin</title>
    <desc>Created with Sketch.</desc>
    <defs>
        <path id="path-1" d="M0,0 L39.7252414,0 L39.7252414,39.9833333 L0,39.9833333 L0,0 Z"></path>
    </defs>
    <g id="Page-1" stroke="none" stroke-width="1" fill="none" fill-rule="evenodd" sketch:type="MSPage">
        <g id="icon-linkedin" sketch:type="MSArtboardGroup">
            <g id="In-White-2in-TM" sketch:type="MSLayerGroup">
                <g id="Group-3">
                    <mask id="mask-2" sketch:name="Clip 2" fill="white">
                        <use xlink:href="#path-1"></use>
                    </mask>
                    <g id="Clip-2"></g>
                    <path d="M33.8504828,34.0852778 L27.9624828,34.0852778 L27.9624828,24.8019444 C27.9624828,22.5883333 27.9222069,19.7408333 24.9006897,19.7408333 C21.8350345,19.7408333 21.3644138,22.1522222 21.3644138,24.6419444 L21.3644138,34.0852778 L15.4775172,34.0852778 L15.4775172,14.9958333 L21.1285517,14.9958333 L21.1285517,17.6041667 L21.2074483,17.6041667 C21.9942069,16.1036111 23.9161379,14.5213889 26.7826207,14.5213889 C32.7489655,14.5213889 33.8504828,18.4752778 33.8504828,23.6147222 L33.8504828,34.0852778 L33.8504828,34.0852778 Z M8.83696552,12.3863889 C6.94841379,12.3863889 5.42013793,10.845 5.42013793,8.94583333 C5.42013793,7.04833333 6.94841379,5.50694444 8.83696552,5.50694444 C10.7208276,5.50694444 12.2515862,7.04833333 12.2515862,8.94583333 C12.2515862,10.845 10.7208276,12.3863889 8.83696552,12.3863889 L8.83696552,12.3863889 Z M5.88965517,14.9958333 L11.782069,14.9958333 L11.782069,34.0852778 L5.88965517,34.0852778 L5.88965517,14.9958333 Z M36.7848276,0 L2.93213793,0 C1.31448276,0 0,1.29111111 0,2.88222222 L0,37.1138889 C0,38.7069444 1.31448276,40 2.93213793,40 L36.7848276,40 C38.4052414,40 39.7252414,38.7069444 39.7252414,37.1138889 L39.7252414,2.88222222 C39.7252414,1.29111111 38.4052414,0 36.7848276,0 L36.7848276,0 Z" id="Fill-1" fill="#FFFFFF" sketch:type="MSShapeGroup" mask="url(#mask-2)"></path>
                </g>
            </g>
        </g>
    </g>
</svg>